# Utah Teapot Model
# Version: Custom
# Triangle Mesh Resolution: 3 (600 faces)
o Utah Teapot

v -2.337037 2.083333 0
v -2.301828 2.02716 -0.2
v -2.236443 1.922839 -0.2
v -2.201234 1.866666 0
v -2.84074 1.966667 0
v -2.773205 1.925617 -0.2
v -2.647783 1.849383 -0.2
v -2.580247 1.808333 0
v -3 1.65 0
v -2.922222 1.65 -0.2
v -2.777778 1.65 -0.2
v -2.7 1.65 0
v -1.629803 2.097415 0
v -1.597604 2.040326 -0.2
v -1.697556 1.931377 -0.2
v -1.816837 1.872011 0
v -1.536884 2.164533 0
v -1.507437 2.068331 -0.2648413
v -1.605203 1.841453 -0.2653873
v -1.718703 1.743229 0
v -2.301828 2.02716 0.2
v -2.236443 1.922839 0.2
v -2.773205 1.925617 0.2
v -2.647783 1.849383 0.2
v -2.922222 1.65 0.2
v -2.777778 1.65 0.2
v -1.597604 2.040326 0.2
v -1.697556 1.931377 0.2
v -1.507437 2.068331 0.2648413
v -1.605203 1.841453 0.2653873
v -2.874074 1.213889 0
v -2.808138 1.253498 -0.2
v -2.685688 1.327057 -0.2
v -2.619753 1.366667 0
v -2.514815 0.811111 0
v -2.484728 0.8687241 -0.2
v -2.428852 0.9757202 -0.2
v -2.398765 1.033333 0
v -2.129622 0.8421001 0
v -2.058923 0.7288468 -0.2
v -2.056161 0.7167687 -0.2
v -1.898123 0.5108142 -0.2
v -1.929069 0.4670738 0
v -1.969111 0.9107279 0
v -1.925589 0.7699163 -0.2634192
v -1.929285 0.75 -0.2639121
v -1.846655 0.4856113 -0.2659584
v -1.890801 0.4013421 0
v -2.808138 1.253498 0.2
v -2.685688 1.327057 0.2
v -2.484728 0.8687241 0.2
v -2.428852 0.9757202 0.2
v -2.058923 0.7288468 0.2
v -2.056161 0.7167687 0.2
v -1.898123 0.5108142 0.2
v -1.925589 0.7699163 0.2634192
v -1.929285 0.75 0.2639121
v -1.846655 0.4856113 0.2659584
v 2.8 2.25 0
v 2.903703 2.25 -0.1
v 3.096296 2.25 -0.1
v 3.2 2.25 0
v 2.840159 2.300436 0
v 2.983517 2.304333 -0.1211765
v 3.248482 2.311681 -0.1211765
v 3.390805 2.315746 0
v 2.79143 2.300871 0
v 2.960039 2.302186 -0.1571678
v 3.270627 2.304844 -0.1571678
v 3.437166 2.306493 0
v 2.7 2.25 0
v 2.855555 2.25 -0.1666667
v 3.144444 2.25 -0.1666667
v 3.3 2.25 0
v 2.903703 2.25 0.1
v 3.096296 2.25 0.1
v 2.983517 2.304333 0.1211765
v 3.248482 2.311681 0.1211765
v 2.960039 2.302186 0.1571678
v 3.270627 2.304844 0.1571678
v 2.855555 2.25 0.1666667
v 3.144444 2.25 0.1666667
v 2.464125 1.863017 0
v 2.547092 1.814892 -0.2297458
v 2.703721 1.725299 -0.2297458
v 2.78876 1.67684 0
v 2.270951 1.460675 0
v 2.338361 1.325347 -0.3652433
v 2.464824 1.073915 -0.3652433
v 2.533269 0.9384203 0
v 1.97372 1.364015 0
v 1.913481 1.176536 -0.3567803
v 1.897989 1.143064 -0.4168141
v 1.941864 0.7935532 -0.4163594
v 1.973547 0.7659799 -0.321145
v 2.024337 0.6401101 0
v 1.83777 1.418586 8.03315e-8
v 1.795846 1.221118 -0.4240087
v 1.783887 1.189469 -0.4913402
v 1.859118 0.7846507 -0.5009252
v 1.895291 0.75 -0.3907777
v 1.951957 0.6079522 0
v 2.547092 1.814892 0.2297458
v 2.703721 1.725299 0.2297458
v 2.338361 1.325347 0.3652433
v 2.464824 1.073915 0.3652433
v 1.913481 1.176536 0.3567803
v 1.897989 1.143064 0.4168141
v 1.941864 0.7935532 0.4163594
v 1.973547 0.7659799 0.321145
v 1.795846 1.221118 0.4240087
v 1.783887 1.189469 0.4913402
v 1.859118 0.7846507 0.5009252
v 1.895291 0.75 0.3907777
v 0 3 0
v -0.3592592 2.913888 0
v -0.3111276 2.913888 -0.1796296
v -0.1796296 2.913888 -0.3111276
v 1.570372e-8 2.913888 -0.3592592
v -0.2296296 2.727777 0
v -0.1988651 2.727777 -0.1148148
v -0.1148148 2.727777 -0.1988651
v 1.003743e-8 2.727777 -0.2296296
v -0.2 2.55 0
v -0.1732051 2.55 -0.1
v -0.09999999 2.55 -0.1732051
v 8.742278e-9 2.55 -0.2
v 0.1796296 2.913888 -0.3111276
v 0.3111276 2.913888 -0.1796296
v 0.3592592 2.913888 1.570372e-8
v 0.1148148 2.727777 -0.1988651
v 0.1988651 2.727777 -0.1148148
v 0.2296296 2.727777 1.003743e-8
v 0.1 2.55 -0.1732051
v 0.1732051 2.55 -0.09999999
v 0.2 2.55 8.742278e-9
v 0 2.913888 0.3592592
v 0.1796296 2.913888 0.3111276
v 0.3111276 2.913888 0.1796296
v 0 2.727777 0.2296296
v 0.1148148 2.727777 0.1988651
v 0.1988651 2.727777 0.1148148
v 0 2.55 0.2
v 0.1 2.55 0.1732051
v 0.1732051 2.55 0.09999999
v -0.3111276 2.913888 0.1796296
v -0.1796296 2.913888 0.3111276
v -0.1988651 2.727777 0.1148148
v -0.1148148 2.727777 0.1988651
v -0.1732051 2.55 0.1
v -0.09999999 2.55 0.1732051
v -0.5814815 2.444444 0
v -0.5035777 2.444444 -0.2907408
v -0.2907407 2.444444 -0.5035777
v 2.541736e-8 2.444444 -0.5814815
v -1.062963 2.363889 0
v -0.920553 2.363889 -0.5314815
v -0.5314815 2.363889 -0.9205531
v 4.646359e-8 2.363889 -1.062963
v -1.3 2.25 0
v -1.125833 2.25 -0.65
v -0.6499999 2.25 -1.125833
v 5.68248e-8 2.25 -1.3
v 0.2907408 2.444444 -0.5035777
v 0.5035777 2.444444 -0.2907407
v 0.5814815 2.444444 2.541736e-8
v 0.5314815 2.363889 -0.920553
v 0.9205531 2.363889 -0.5314815
v 1.062963 2.363889 4.646359e-8
v 0.65 2.25 -1.125833
v 1.125833 2.25 -0.6499999
v 1.3 2.25 5.68248e-8
v 0 2.444444 0.5814815
v 0.2907408 2.444444 0.5035777
v 0.5035777 2.444444 0.2907407
v 0 2.363889 1.062963
v 0.5314815 2.363889 0.920553
v 0.9205531 2.363889 0.5314815
v 0 2.25 1.3
v 0.65 2.25 1.125833
v 1.125833 2.25 0.6499999
v -0.5035777 2.444444 0.2907408
v -0.2907407 2.444444 0.5035777
v -0.920553 2.363889 0.5314815
v -0.5314815 2.363889 0.9205531
v -1.125833 2.25 0.65
v -0.6499999 2.25 1.125833
v -1.4 2.25 0
v -1.212435 2.25 -0.7
v -0.6999999 2.25 -1.212436
v 6.119594e-8 2.25 -1.4
v -1.388381 2.338604 0
v -1.202373 2.338604 -0.6941906
v -0.6941905 2.338604 -1.202373
v 6.068806e-8 2.338604 -1.388381
v -1.440652 2.339708 0
v -1.247641 2.339708 -0.7203258
v -0.7203256 2.339708 -1.247641
v 6.297288e-8 2.339708 -1.440652
v -1.5 2.25 0
v -1.299038 2.25 -0.75
v -0.7499999 2.25 -1.299038
v 6.556708e-8 2.25 -1.5
v 0.7 2.25 -1.212435
v 1.212436 2.25 -0.6999999
v 1.4 2.25 6.119594e-8
v 0.6941906 2.338604 -1.202373
v 1.202373 2.338604 -0.6941905
v 1.388381 2.338604 6.068806e-8
v 0.7203258 2.339708 -1.247641
v 1.247641 2.339708 -0.7203256
v 1.440652 2.339708 6.297288e-8
v 0.75 2.25 -1.299038
v 1.299038 2.25 -0.7499999
v 1.5 2.25 6.556708e-8
v 0 2.25 1.4
v 0.7 2.25 1.212435
v 1.212436 2.25 0.6999999
v 0 2.338604 1.388381
v 0.6941906 2.338604 1.202373
v 1.202373 2.338604 0.6941905
v 0 2.339708 1.440652
v 0.7203258 2.339708 1.247641
v 1.247641 2.339708 0.7203256
v 0 2.25 1.5
v 0.75 2.25 1.299038
v 1.299038 2.25 0.7499999
v -1.212435 2.25 0.7
v -0.6999999 2.25 1.212436
v -1.202373 2.338604 0.6941906
v -0.6941905 2.338604 1.202373
v -1.247641 2.339708 0.7203258
v -0.7203256 2.339708 1.247641
v -1.299038 2.25 0.75
v -0.7499999 2.25 1.299038
v -1.726324 1.725569 0
v -1.49504 1.725569 -0.8631618
v -0.8631617 1.725569 -1.49504
v 7.546001e-8 1.725569 -1.726324
v -1.909458 1.221118 0
v -1.653639 1.221118 -0.9547292
v -0.9547291 1.221118 -1.653639
v 8.346508e-8 1.221118 -1.909458
v -1.732051 0.75 -1
v -0.9999999 0.75 -1.732051
v 8.742278e-8 0.75 -2
v 0.8631618 1.725569 -1.49504
v 1.49504 1.725569 -0.8631617
v 1.726324 1.725569 7.546001e-8
v 0.9547292 1.221118 -1.653639
v 1.653639 1.221118 -0.9547291
v 1 0.75 -1.732051
v 1.732051 0.75 -0.9999999
v 0 1.725569 1.726324
v 0.8631618 1.725569 1.49504
v 1.49504 1.725569 0.8631617
v 0 1.221118 1.909458
v 0.9547292 1.221118 1.653639
v 1.653639 1.221118 0.9547291
v 0 0.75 2
v 1 0.75 1.732051
v 1.732051 0.75 0.9999999
v -1.49504 1.725569 0.8631618
v -0.8631617 1.725569 1.49504
v -1.653639 1.221118 0.9547292
v -0.9547291 1.221118 1.653639
v -1.732051 0.75 1
v -0.9999999 0.75 1.732051
v -1.882716 0.3722221 0
v -1.630479 0.3722221 -0.9413579
v -0.9413577 0.3722221 -1.63048
v 8.229612e-8 0.3722221 -1.882716
v -1.635802 0.1277778 0
v -1.416646 0.1277778 -0.8179012
v -0.8179012 0.1277778 -1.416646
v 7.15032e-8 0.1277778 -1.635802
v -1.5 0 0
v -1.299038 0 -0.75
v -0.7499999 0 -1.299038
v 6.556708e-8 0 -1.5
v 0.9413579 0.3722221 -1.630479
v 1.63048 0.3722221 -0.9413577
v 1.882716 0.3722221 8.229612e-8
v 0.8179012 0.1277778 -1.416646
v 1.416646 0.1277778 -0.8179012
v 1.635802 0.1277778 7.15032e-8
v 0.75 0 -1.299038
v 1.299038 0 -0.7499999
v 1.5 0 6.556708e-8
v 0 0.3722221 1.882716
v 0.9413579 0.3722221 1.630479
v 1.63048 0.3722221 0.9413577
v 0 0.1277778 1.635802
v 0.8179012 0.1277778 1.416646
v 1.416646 0.1277778 0.8179012
v 0 0 1.5
v 0.75 0 1.299038
v 1.299038 0 0.7499999
v -1.630479 0.3722221 0.9413579
v -0.9413577 0.3722221 1.63048
v -1.416646 0.1277778 0.8179012
v -0.8179012 0.1277778 1.416646
v -1.299038 0 0.75
v -0.7499999 0 1.299038
v 3 2.25 0

vn -0.0984208 0.9951449 0
vn -0.05511727 0.597127 -0.8002509
vn 0.04628173 -0.6000502 -0.7986225
vn 0.06668281 -0.9977742 0
vn -0.628947 0.7774482 0
vn -0.3405413 0.4535853 -0.823585
vn 0.3041583 -0.4911098 -0.8162712
vn 0.4696852 -0.882834 0
vn -1 0 0
vn -0.6 -3.804552e-8 -0.8
vn 0.6000001 0 -0.7999998
vn 1 0.000001324547 0
vn -0.01527224 0.9998834 0
vn -0.005092373 0.5998112 -0.8001254
vn 0.008629433 -0.6001071 -0.7998732
vn 0.02406351 -0.9997104 0
vn -0.9446307 0.3281356 0
vn -0.9319115 0.3275624 -0.1557045
vn -0.9399878 0.3050083 -0.1529474
vn -0.9578277 0.2873432 0
vn -0.05511727 0.597127 0.8002509
vn 0.04628173 -0.6000502 0.7986225
vn -0.3405413 0.4535853 0.823585
vn 0.3041583 -0.4911098 0.8162712
vn -0.6 -3.804552e-8 0.8
vn 0.6000001 0 0.7999998
vn -0.005092373 0.5998112 0.8001254
vn 0.008629433 -0.6001071 0.7998732
vn -0.9319115 0.3275624 0.1557045
vn -0.9399878 0.3050083 0.1529474
vn -0.917887 -0.396842 0
vn -0.5420998 -0.2242667 -0.8098347
vn 0.5539438 0.2060965 -0.8066415
vn 0.9454015 0.3259078 0
vn -0.7278901 -0.6856937 0
vn -0.4665273 -0.4131268 -0.7820988
vn 0.5062851 0.3884683 -0.7699142
vn 0.8210956 0.5707906 0
vn 0.6263857 0.7795133 0
vn 0.3953988 0.4717665 -0.7880965
vn 0.3507506 0.4140404 -0.8399671
vn -0.339529 -0.507363 -0.7920245
vn -0.5498571 -0.8352588 0
vn -0.996915 0.07848801 0
vn -0.9906875 0.009741231 -0.1358064
vn -0.9907731 1.531298e-7 -0.1355309
vn -0.9303089 -0.341484 -0.1338433
vn -0.9013854 -0.4330178 0
vn -0.5420998 -0.2242667 0.8098347
vn 0.5539438 0.2060965 0.8066415
vn -0.4665273 -0.4131268 0.7820988
vn 0.5062851 0.3884683 0.7699142
vn 0.3953988 0.4717665 0.7880965
vn 0.3507506 0.4140404 0.8399671
vn -0.339529 -0.507363 0.7920245
vn -0.9906875 0.009741231 0.1358064
vn -0.9907731 1.531298e-7 0.1355309
vn -0.9303089 -0.341484 0.1338433
vn 0.7071068 -0.7071068 0
vn 0.2568863 -0.3158439 0.9133739
vn -0.249881 0.3849518 0.8884658
vn -0.5144946 0.8574936 0
vn 0.9421459 0.3352029 0
vn 0.1336343 0.7007166 0.7008125
vn -0.1385287 0.9140893 0.3811176
vn -0.216077 0.9763764 0
vn -0.4022185 0.9155437 0
vn -0.1853925 0.7783512 -0.5998325
vn 0.2349874 0.2869095 -0.9286894
vn 0.7117049 -0.7024785 0
vn -0.7071068 0.7071068 0
vn -0.2796589 0.3477499 -0.8949084
vn 0.2684081 -0.4361634 -0.8589055
vn 0.4856419 -0.8741579 0
vn 0.2568863 -0.3158439 -0.9133739
vn -0.249881 0.3849518 -0.8884658
vn 0.1336343 0.7007166 -0.7008125
vn -0.1385287 0.9140893 -0.3811176
vn -0.1853925 0.7783512 0.5998325
vn 0.2349874 0.2869095 0.9286894
vn -0.2796589 0.3477499 0.8949084
vn 0.2684081 -0.4361634 0.8589055
vn -0.9704286 0.2413885 0
vn -0.4672924 0.264827 -0.8435072
vn 0.6023738 -0.04621039 -0.7968754
vn 0.968155 -0.2503514 0
vn -0.8175167 0.5759048 0
vn -0.321586 0.3878839 -0.8637872
vn 0.6479933 -0.1897449 -0.7376323
vn 0.9147211 -0.4040855 0
vn -0.4414225 0.8972993 0
vn -0.1834906 0.5148338 -0.837423
vn -0.1222609 0.4070725 -0.9051763
vn 0.2659371 -0.356025 -0.8958368
vn 0.380789 -0.5110348 -0.7706122
vn 0.5399551 -0.8416938 0
vn 0.967967 0.2510774 4.231044e-8
vn 0.9457001 0.2362101 -0.2232848
vn 0.9405198 0.2211987 -0.2578637
vn 0.9654387 0.01747238 -0.2600439
vn 0.9793987 -1.296032e-8 -0.2019359
vn 0.9836382 -0.1801552 0
vn -0.4672924 0.264827 0.8435072
vn 0.6023738 -0.04621039 0.7968754
vn -0.321586 0.3878839 0.8637872
vn 0.6479933 -0.1897449 0.7376323
vn -0.1834906 0.5148338 0.837423
vn -0.1222609 0.4070725 0.9051763
vn 0.2659371 -0.356025 0.8958368
vn 0.380789 -0.5110348 0.7706122
vn 0.9457001 0.2362101 0.2232848
vn 0.9405198 0.2211987 0.2578637
vn 0.9654387 0.01747238 0.2600439
vn 0.9793987 -1.296032e-8 0.2019359
vn 0 1 0
vn -0.9974588 0.07124683 0
vn -0.8638247 0.07124677 -0.4987293
vn -0.4987293 0.07124676 -0.8638247
vn 4.360031e-8 0.07124683 -0.9974588
vn -0.8338528 -0.5519869 0
vn -0.7221377 -0.551987 -0.4169264
vn -0.4169264 -0.5519869 -0.7221377
vn 3.644887e-8 -0.5519869 -0.8338528
vn -0.7071064 0.7071071 0
vn -0.6123722 0.7071071 -0.3535532
vn -0.3535532 0.7071071 -0.6123722
vn 3.090861e-8 0.7071071 -0.7071064
vn 0.4987293 0.07124677 -0.8638247
vn 0.8638247 0.07124676 -0.4987293
vn 0.9974588 0.07124683 4.360031e-8
vn 0.4169264 -0.551987 -0.7221377
vn 0.7221377 -0.5519869 -0.4169264
vn 0.8338528 -0.5519869 3.644887e-8
vn 0.3535532 0.7071071 -0.6123722
vn 0.6123722 0.7071071 -0.3535532
vn 0.7071064 0.7071071 3.090861e-8
vn 0 0.07124683 0.9974588
vn 0.4987293 0.07124677 0.8638247
vn 0.8638247 0.07124676 0.4987293
vn 0 -0.5519869 0.8338528
vn 0.4169264 -0.551987 0.7221377
vn 0.7221377 -0.5519869 0.4169264
vn 0 0.7071071 0.7071064
vn 0.3535532 0.7071071 0.6123722
vn 0.6123722 0.7071071 0.3535532
vn -0.8638247 0.07124677 0.4987293
vn -0.4987293 0.07124676 0.8638247
vn -0.7221377 -0.551987 0.4169264
vn -0.4169264 -0.5519869 0.7221377
vn -0.6123722 0.7071071 0.3535532
vn -0.3535532 0.7071071 0.6123722
vn -0.2130392 0.9770437 0
vn -0.1844974 0.9770436 -0.1065196
vn -0.1065196 0.9770437 -0.1844974
vn 9.312241e-9 0.9770437 -0.2130392
vn -0.2747212 0.9615239 0
vn -0.2379155 0.9615239 -0.1373606
vn -0.1373606 0.9615239 -0.2379156
vn 1.200844e-8 0.9615239 -0.2747212
vn -1 0 0
vn -0.8660254 -8.60318e-7 -0.5000001
vn -0.4999999 0 -0.8660254
vn 4.371139e-8 0 -1
vn 0.1065196 0.9770436 -0.1844974
vn 0.1844974 0.9770437 -0.1065196
vn 0.2130392 0.9770437 9.312241e-9
vn 0.1373606 0.9615239 -0.2379155
vn 0.2379156 0.9615239 -0.1373606
vn 0.2747212 0.9615239 1.200844e-8
vn 0.5000001 -8.60318e-7 -0.8660254
vn 0.8660254 0 -0.4999999
vn 1 0 4.371139e-8
vn 0 0.9770437 0.2130392
vn 0.1065196 0.9770436 0.1844974
vn 0.1844974 0.9770437 0.1065196
vn 0 0.9615239 0.2747212
vn 0.1373606 0.9615239 0.2379155
vn 0.2379156 0.9615239 0.1373606
vn 0 0 1
vn 0.5000001 -8.60318e-7 0.8660254
vn 0.8660254 0 0.4999999
vn -0.1844974 0.9770436 0.1065196
vn -0.1065196 0.9770437 0.1844974
vn -0.2379155 0.9615239 0.1373606
vn -0.1373606 0.9615239 0.2379156
vn -0.8660254 -8.60318e-7 0.5000001
vn -0.4999999 0 0.8660254
vn 0.9417421 -0.3363358 0
vn 0.8155726 -0.3363357 0.4708711
vn 0.4708711 -0.3363355 0.8155727
vn -4.116485e-8 -0.3363358 0.9417421
vn 0.8872711 0.4612482 0
vn 0.7683992 0.4612485 0.4436355
vn 0.4436356 0.461248 0.7683995
vn -3.878385e-8 0.4612482 0.8872711
vn -0.6991698 0.7149556 0
vn -0.6054989 0.7149557 -0.3495849
vn -0.3495848 0.7149559 -0.6054987
vn 3.056168e-8 0.7149556 -0.6991698
vn -0.9417424 0.3363349 0
vn -0.815573 0.3363347 -0.4708713
vn -0.470871 0.3363357 -0.8155726
vn 4.116486e-8 0.3363349 -0.9417424
vn -0.4708711 -0.3363357 0.8155726
vn -0.8155727 -0.3363355 0.4708711
vn -0.9417421 -0.3363358 -4.116485e-8
vn -0.4436355 0.4612485 0.7683992
vn -0.7683995 0.461248 0.4436356
vn -0.8872711 0.4612482 -3.878385e-8
vn 0.3495849 0.7149557 -0.6054989
vn 0.6054987 0.7149559 -0.3495848
vn 0.6991698 0.7149556 3.056168e-8
vn 0.4708713 0.3363347 -0.815573
vn 0.8155726 0.3363357 -0.470871
vn 0.9417424 0.3363349 4.116486e-8
vn 0 -0.3363358 -0.9417421
vn -0.4708711 -0.3363357 -0.8155726
vn -0.8155727 -0.3363355 -0.4708711
vn 0 0.4612482 -0.8872711
vn -0.4436355 0.4612485 -0.7683992
vn -0.7683995 0.461248 -0.4436356
vn 0 0.7149556 0.6991698
vn 0.3495849 0.7149557 0.6054989
vn 0.6054987 0.7149559 0.3495848
vn 0 0.3363349 0.9417424
vn 0.4708713 0.3363347 0.815573
vn 0.8155726 0.3363357 0.470871
vn 0.8155726 -0.3363357 -0.4708711
vn 0.4708711 -0.3363355 -0.8155727
vn 0.7683992 0.4612485 -0.4436355
vn 0.4436356 0.461248 -0.7683995
vn -0.6054989 0.7149557 0.3495849
vn -0.3495848 0.7149559 0.6054987
vn -0.815573 0.3363347 0.4708713
vn -0.470871 0.3363357 0.8155726
vn -0.958342 0.2856233 0
vn -0.8299485 0.2856233 -0.479171
vn -0.4791709 0.2856233 -0.8299485
vn 4.189045e-8 0.2856233 -0.958342
vn -0.9735002 0.2286861 0
vn -0.8430759 0.2286862 -0.4867501
vn -0.48675 0.2286862 -0.8430759
vn 4.255304e-8 0.2286861 -0.9735002
vn -0.8660254 0 -0.5
vn -0.4999999 0 -0.8660254
vn 4.371139e-8 0 -1
vn 0.479171 0.2856233 -0.8299485
vn 0.8299485 0.2856233 -0.4791709
vn 0.958342 0.2856233 4.189045e-8
vn 0.4867501 0.2286862 -0.8430759
vn 0.8430759 0.2286862 -0.48675
vn 0.5 0 -0.8660254
vn 0.8660254 0 -0.4999999
vn 0 0.2856233 0.958342
vn 0.479171 0.2856233 0.8299485
vn 0.8299485 0.2856233 0.4791709
vn 0 0.2286861 0.9735002
vn 0.4867501 0.2286862 0.8430759
vn 0.8430759 0.2286862 0.48675
vn 0 0 1
vn 0.5 0 0.8660254
vn 0.8660254 0 0.4999999
vn -0.8299485 0.2856233 0.479171
vn -0.4791709 0.2856233 0.8299485
vn -0.8430759 0.2286862 0.4867501
vn -0.48675 0.2286862 0.8430759
vn -0.8660254 0 0.5
vn -0.4999999 0 0.8660254
vn -0.8852063 -0.4651985 0
vn -0.7666112 -0.4651985 -0.4426032
vn -0.4426031 -0.4651985 -0.7666113
vn 3.869359e-8 -0.4651985 -0.8852063
vn -0.7215329 -0.6923802 0
vn -0.6248659 -0.6923801 -0.3607665
vn -0.3607664 -0.6923802 -0.6248658
vn 3.15392e-8 -0.6923802 -0.7215329
vn -1 0 0
vn -0.8660254 -0.000001720638 -0.5
vn -0.4999999 -4.967052e-7 -0.8660254
vn 4.371139e-8 0 -1
vn 0.4426032 -0.4651985 -0.7666112
vn 0.7666113 -0.4651985 -0.4426031
vn 0.8852063 -0.4651985 3.869359e-8
vn 0.3607665 -0.6923801 -0.6248659
vn 0.6248658 -0.6923802 -0.3607664
vn 0.7215329 -0.6923802 3.15392e-8
vn 0.5 -0.000001720638 -0.8660254
vn 0.8660254 -4.967052e-7 -0.4999999
vn 1 0 4.371139e-8
vn 0 -0.4651985 0.8852063
vn 0.4426032 -0.4651985 0.7666112
vn 0.7666113 -0.4651985 0.4426031
vn 0 -0.6923802 0.7215329
vn 0.3607665 -0.6923801 0.6248659
vn 0.6248658 -0.6923802 0.3607664
vn 0 0 1
vn 0.5 -0.000001720638 0.8660254
vn 0.8660254 -4.967052e-7 0.4999999
vn -0.7666112 -0.4651985 0.4426032
vn -0.4426031 -0.4651985 0.7666113
vn -0.6248659 -0.6923801 0.3607665
vn -0.3607664 -0.6923802 0.6248658
vn -0.8660254 -0.000001720638 0.5
vn -0.4999999 -4.967052e-7 0.8660254
vn 0 1 0
vn 0 1 0
vn 0 1 0
vn 0 1 0
vn 0 1 0
vn 0 1 0
vn 0 1 0
vn 0 1 0
vn 0 1 0
vn 0 1 0
vn 0 1 0
vn 0 1 0
vn 0 1 0
vn 0 1 0
vn 0 1 0
vn 0 1 0
vn 0 1 0
vn 0 1 0
vn 0 1 0
vn 0 1 0
vn 0 1 0
vn 0 1 0
vn 0 1 0
vn 0 1 0
vn 0 1 0
vn 0 1 0
vn 0 1 0
vn 0 1 0
vn 0 1 0
vn 0 1 0
vn 0 1 0
vn 0 1 0
vn 0 1 0
vn 0 -1 0
vn 0 -1 0
vn 0 -1 0
vn 0 -1 0
vn 0 -1 0
vn 0 -1 0
vn 0 -1 0
vn 0 -1 0

vt 0.125 0.8981482
vt 0.1640625 0.8968969
vt 0.203125 0.8938112
vt 0.2421875 0.8915344
vt 0.125 0.8201058
vt 0.1640625 0.818354
vt 0.203125 0.8140341
vt 0.2421875 0.8108466
vt 0.125 0.75
vt 0.1640625 0.75
vt 0.203125 0.75
vt 0.2421875 0.75
vt 0.125 0.9842054
vt 0.1640625 0.9904753
vt 0.203125 0.9802039
vt 0.2421875 0.9608809
vt 0.125 0.9963712
vt 0.1640625 1.002641
vt 0.203125 0.9923696
vt 0.2421875 0.9730467
vt 0.0859375 0.8968969
vt 0.046875 0.8938112
vt 0.0078125 0.8915344
vt 0.0859375 0.818354
vt 0.046875 0.8140341
vt 0.0078125 0.8108466
vt 0.0859375 0.75
vt 0.046875 0.75
vt 0.0078125 0.75
vt 0.0859375 0.9904753
vt 0.046875 0.9802039
vt 0.0078125 0.9608809
vt 0.0859375 1.002641
vt 0.046875 0.9923696
vt 0.0078125 0.9730467
vt 0.125 0.6818174
vt 0.1640625 0.6832684
vt 0.203125 0.6867255
vt 0.2421875 0.6891459
vt 0.125 0.6057006
vt 0.1640625 0.606074
vt 0.203125 0.6068425
vt 0.2421875 0.6073071
vt 0.2421875 0.5466926
vt 0.203125 0.553989
vt 0.1997397 0.5534732
vt 0.1640625 0.5316893
vt 0.125 0.5310069
vt 0.2421875 0.5325896
vt 0.203125 0.5398859
vt 0.1997397 0.5393702
vt 0.1640625 0.5175862
vt 0.125 0.5169039
vt 0.0859375 0.6832684
vt 0.046875 0.6867255
vt 0.0078125 0.6891459
vt 0.0859375 0.606074
vt 0.046875 0.6068425
vt 0.0078125 0.6073071
vt 0.0078125 0.5466926
vt 0.046875 0.553989
vt 0.05026026 0.5534732
vt 0.0859375 0.5316893
vt 0.0078125 0.5325896
vt 0.046875 0.5398859
vt 0.05026026 0.5393702
vt 0.0859375 0.5175862
vt 0.75 1
vt 0.7916667 1
vt 0.8333333 1
vt 0.875 1
vt 0.75 0.9743989
vt 0.7916667 0.9733532
vt 0.8333333 0.9722013
vt 0.875 0.9719115
vt 0.75 0.950601
vt 0.7916667 0.9505999
vt 0.8333333 0.9504889
vt 0.875 0.9503689
vt 0.75 0.925
vt 0.7916667 0.925
vt 0.8333333 0.925
vt 0.875 0.925
vt 1 1
vt 0.9583333 1
vt 0.9166667 1
vt 1 0.9743989
vt 0.9583333 0.9733532
vt 0.9166667 0.9722013
vt 1 0.950601
vt 0.9583333 0.9505999
vt 0.9166667 0.9504889
vt 1 0.925
vt 0.9583333 0.925
vt 0.9166667 0.925
vt 0.75 0.8094902
vt 0.7916667 0.8079446
vt 0.8333333 0.8056084
vt 0.875 0.8046172
vt 0.75 0.6667978
vt 0.7916667 0.6637566
vt 0.8333333 0.6608076
vt 0.875 0.6599013
vt 0.75 0.5868785
vt 0.7857203 0.5648986
vt 0.7916667 0.5599514
vt 0.8333333 0.5599341
vt 0.8428618 0.5645727
vt 0.875 0.5703508
vt 0.75 0.5549071
vt 0.7857203 0.5329271
vt 0.7916667 0.52798
vt 0.8333333 0.5279627
vt 0.8428618 0.5326012
vt 0.875 0.5383794
vt 1 0.8094902
vt 0.9583333 0.8079446
vt 0.9166667 0.8056084
vt 1 0.6667978
vt 0.9583333 0.6637566
vt 0.9166667 0.6608076
vt 1 0.5868785
vt 0.9642797 0.5648986
vt 0.9583333 0.5599514
vt 0.9166667 0.5599341
vt 0.9071382 0.5645727
vt 1 0.5549071
vt 0.9642797 0.5329271
vt 0.9583333 0.52798
vt 0.9166667 0.5279627
vt 0.9071382 0.5326012
vt 0.375 0.75
vt 0.375 0.6545408
vt 0.3988648 0.6673299
vt 0.416335 0.7022704
vt 0.4227296 0.75
vt 0.375 0.5702168
vt 0.4199458 0.5943032
vt 0.4528484 0.6601084
vt 0.4648916 0.75
vt 0.375 0.515625
vt 0.4335938 0.5470253
vt 0.4764874 0.6328126
vt 0.4921875 0.75
vt 0.416335 0.7977296
vt 0.3988648 0.8326701
vt 0.375 0.8454592
vt 0.4528484 0.8398916
vt 0.4199458 0.9056968
vt 0.375 0.9297832
vt 0.4764873 0.8671875
vt 0.4335938 0.9529747
vt 0.375 0.984375
vt 0.3272704 0.75
vt 0.333665 0.7977296
vt 0.3511352 0.8326701
vt 0.2851084 0.75
vt 0.2971516 0.8398916
vt 0.3300542 0.9056968
vt 0.2578125 0.75
vt 0.2735127 0.8671875
vt 0.3164063 0.9529747
vt 0.3511352 0.6673299
vt 0.333665 0.7022704
vt 0.3300542 0.5943032
vt 0.2971516 0.6601084
vt 0.3164063 0.5470253
vt 0.2735126 0.6328126
vt 0.625 0.7139423
vt 0.6340144 0.7187731
vt 0.6406134 0.7319711
vt 0.6430289 0.75
vt 0.625 0.6508725
vt 0.6497819 0.6641531
vt 0.6679235 0.7004362
vt 0.6745638 0.75
vt 0.625 0.5707743
vt 0.6698064 0.594786
vt 0.702607 0.6603872
vt 0.7146128 0.75
vt 0.625 0.515625
vt 0.6835938 0.5470253
vt 0.7264873 0.6328126
vt 0.7421875 0.75
vt 0.6406134 0.7680289
vt 0.6340144 0.7812269
vt 0.625 0.7860577
vt 0.6679235 0.7995638
vt 0.6497819 0.8358469
vt 0.625 0.8491275
vt 0.702607 0.8396128
vt 0.6698064 0.905214
vt 0.625 0.9292257
vt 0.7264873 0.8671875
vt 0.6835938 0.9529747
vt 0.625 0.984375
vt 0.6069711 0.75
vt 0.6093866 0.7680289
vt 0.6159856 0.7812269
vt 0.5754362 0.75
vt 0.5820765 0.7995638
vt 0.6002181 0.8358469
vt 0.5353872 0.75
vt 0.547393 0.8396128
vt 0.5801936 0.905214
vt 0.5078125 0.75
vt 0.5235127 0.8671875
vt 0.5664063 0.9529747
vt 0.6159856 0.7187731
vt 0.6093866 0.7319711
vt 0.6002181 0.6641531
vt 0.5820765 0.7004362
vt 0.5801936 0.594786
vt 0.547393 0.6603872
vt 0.5664063 0.5470253
vt 0.5235127 0.6328126
vt 0 0.5
vt 0.08333334 0.5
vt 0.1666667 0.5
vt 0.25 0.5
vt 0 0.4854339
vt 0.08333334 0.4854339
vt 0.1666667 0.4854339
vt 0.25 0.4854339
vt 0 0.4725661
vt 0.08333334 0.4725661
vt 0.1666667 0.4725661
vt 0.25 0.4725661
vt 0 0.458
vt 0.08333334 0.458
vt 0.1666667 0.458
vt 0.25 0.458
vt 0.3333333 0.5
vt 0.4166667 0.5
vt 0.5 0.5
vt 0.3333333 0.4854339
vt 0.4166667 0.4854339
vt 0.5 0.4854339
vt 0.3333333 0.4725661
vt 0.4166667 0.4725661
vt 0.5 0.4725661
vt 0.3333333 0.458
vt 0.4166667 0.458
vt 0.5 0.458
vt 0.75 0.5
vt 0.6666666 0.5
vt 0.5833333 0.5
vt 0.75 0.4854339
vt 0.6666666 0.4854339
vt 0.5833333 0.4854339
vt 0.75 0.4725661
vt 0.6666666 0.4725661
vt 0.5833333 0.4725661
vt 0.75 0.458
vt 0.6666666 0.458
vt 0.5833333 0.458
vt 1 0.5
vt 0.9166667 0.5
vt 0.8333333 0.5
vt 1 0.4854339
vt 0.9166667 0.4854339
vt 0.8333333 0.4854339
vt 1 0.4725661
vt 0.9166667 0.4725661
vt 0.8333333 0.4725661
vt 1 0.458
vt 0.9166667 0.458
vt 0.8333333 0.458
vt 0 0.3911541
vt 0.08333334 0.3911541
vt 0.1666667 0.3911541
vt 0.25 0.3911541
vt 0 0.3271925
vt 0.08333334 0.3271925
vt 0.1666667 0.3271925
vt 0.25 0.3271925
vt 0.08333334 0.269
vt 0.1666667 0.269
vt 0.25 0.269
vt 0 0.447106
vt 0.02646947 0.4348438
vt 0.02592609 0.405925
vt 0 0.393405
vt 0 0.2888531
vt 0.0219516 0.2714601
vt 0.02199267 0.269
vt 0.3333333 0.3911541
vt 0.4166667 0.3911541
vt 0.5 0.3911541
vt 0.3333333 0.3271925
vt 0.4166667 0.3271925
vt 0.3333333 0.269
vt 0.4166667 0.269
vt 0.5 0.3522303
vt 0.4629905 0.3271925
vt 0.4573789 0.3232832
vt 0.4581241 0.2732801
vt 0.4674352 0.269
vt 0.75 0.3911541
vt 0.6666666 0.3911541
vt 0.5833333 0.3911541
vt 0.75 0.3271925
vt 0.6666666 0.3271925
vt 0.5833333 0.3271925
vt 0.75 0.269
vt 0.6666666 0.269
vt 0.5833333 0.269
vt 0.5370095 0.3271925
vt 0.5426211 0.3232832
vt 0.541876 0.2732801
vt 0.5325648 0.269
vt 1 0.3911541
vt 0.9166667 0.3911541
vt 0.8333333 0.3911541
vt 1 0.3271925
vt 0.9166667 0.3271925
vt 0.8333333 0.3271925
vt 0.9166667 0.269
vt 0.8333333 0.269
vt 1 0.447106
vt 0.9735305 0.4348438
vt 0.9740739 0.405925
vt 1 0.393405
vt 1 0.2888531
vt 0.9780484 0.2714601
vt 0.9780073 0.269
vt 0 0.2154772
vt 0.08333334 0.2154772
vt 0.1666667 0.2154772
vt 0.25 0.2154772
vt 0 0.1726079
vt 0.08333334 0.1726079
vt 0.1666667 0.1726079
vt 0.25 0.1726079
vt 0 0.15
vt 0.08333334 0.15
vt 0.1666667 0.15
vt 0.25 0.15
vt 0.02313265 0.231542
vt 0 0.2196029
vt 0.3333333 0.2154772
vt 0.4166667 0.2154772
vt 0.5 0.2154772
vt 0.3333333 0.1726079
vt 0.4166667 0.1726079
vt 0.5 0.1726079
vt 0.3333333 0.15
vt 0.4166667 0.15
vt 0.5 0.15
vt 0.5 0.248875
vt 0.75 0.2154772
vt 0.6666666 0.2154772
vt 0.5833333 0.2154772
vt 0.75 0.1726079
vt 0.6666666 0.1726079
vt 0.5833333 0.1726079
vt 0.75 0.15
vt 0.6666666 0.15
vt 0.5833333 0.15
vt 1 0.2154772
vt 0.9166667 0.2154772
vt 0.8333333 0.2154772
vt 1 0.1726079
vt 0.9166667 0.1726079
vt 0.8333333 0.1726079
vt 1 0.15
vt 0.9166667 0.15
vt 0.8333333 0.15
vt 0.9768674 0.231542
vt 1 0.2196029
vt 0.625 0.5178571
vt 0.625 0.5
vt 0.6830357 0.5489584
vt 0.6875 0.5334936
vt 0.7255208 0.6339286
vt 0.7332532 0.625
vt 0.7410714 0.75
vt 0.75 0.75
vt 0.7410714 0.75
vt 0.75 0.75
vt 0.7255208 0.8660714
vt 0.7332532 0.875
vt 0.6830357 0.9510416
vt 0.6875 0.9665064
vt 0.625 0.9821429
vt 0.625 1
vt 0.5089286 0.75
vt 0.5 0.75
vt 0.5244792 0.8660714
vt 0.5167468 0.875
vt 0.5669643 0.9510416
vt 0.5625 0.9665064
vt 0.625 0.9821429
vt 0.625 1
vt 0.625 0.5178571
vt 0.625 0.5
vt 0.5669643 0.5489584
vt 0.5625 0.5334936
vt 0.5244792 0.6339286
vt 0.5167468 0.625
vt 0.5089286 0.75
vt 0.5 0.75
vt 0.875 1
vt 0.75 1
vt 0.7916667 1
vt 0.8333333 1
vt 0.875 1
vt 1 1
vt 0.9583333 1
vt 0.9166667 1
vt 0.875 1

f 6/6/6 1/1/1 2/2/2
f 1/1/1 6/6/6 5/5/5
f 7/7/7 2/2/2 3/3/3
f 2/2/2 7/7/7 6/6/6
f 8/8/8 3/3/3 4/4/4
f 3/3/3 8/8/8 7/7/7
f 10/10/10 5/5/5 6/6/6
f 5/5/5 10/10/10 9/9/9
f 11/11/11 6/6/6 7/7/7
f 6/6/6 11/11/11 10/10/10
f 12/12/12 7/7/7 8/8/8
f 7/7/7 12/12/12 11/11/11
f 13/13/13 14/14/14 2/2/2
f 13/13/13 2/2/2 1/1/1
f 15/15/15 2/2/2 14/14/14
f 15/15/15 3/3/3 2/2/2
f 16/16/16 3/3/3 15/15/15
f 16/16/16 4/4/4 3/3/3
f 17/17/17 14/14/14 13/13/13
f 14/14/14 17/17/17 18/18/18
f 18/18/18 15/15/15 14/14/14
f 15/15/15 18/18/18 19/19/19
f 19/19/19 16/16/16 15/15/15
f 16/16/16 19/19/19 20/20/20
f 23/24/23 1/1/1 5/5/5
f 1/1/1 23/24/23 21/21/21
f 24/25/24 21/21/21 23/24/23
f 21/21/21 24/25/24 22/22/22
f 8/26/8 22/22/22 24/25/24
f 22/22/22 8/26/8 4/23/4
f 25/27/25 5/5/5 9/9/9
f 5/5/5 25/27/25 23/24/23
f 26/28/26 23/24/23 25/27/25
f 23/24/23 26/28/26 24/25/24
f 12/29/12 24/25/24 26/28/26
f 24/25/24 12/29/12 8/26/8
f 21/21/21 27/30/27 13/13/13
f 1/1/1 21/21/21 13/13/13
f 27/30/27 21/21/21 28/31/28
f 21/21/21 22/22/22 28/31/28
f 28/31/28 22/22/22 16/32/16
f 22/22/22 4/23/4 16/32/16
f 17/17/17 27/30/27 29/33/29
f 27/30/27 17/17/17 13/13/13
f 29/33/29 28/31/28 30/34/30
f 28/31/28 29/33/29 27/30/27
f 30/34/30 16/32/16 20/35/20
f 16/32/16 30/34/30 28/31/28
f 32/37/32 9/9/9 10/10/10
f 9/9/9 32/37/32 31/36/31
f 33/38/33 10/10/10 11/11/11
f 10/10/10 33/38/33 32/37/32
f 34/39/34 11/11/11 12/12/12
f 11/11/11 34/39/34 33/38/33
f 36/41/36 31/36/31 32/37/32
f 31/36/31 36/41/36 35/40/35
f 37/42/37 32/37/32 33/38/33
f 32/37/32 37/42/37 36/41/36
f 38/43/38 33/38/33 34/39/34
f 33/38/33 38/43/38 37/42/37
f 39/44/39 40/45/40 37/42/37
f 39/44/39 37/42/37 38/43/38
f 41/46/41 37/42/37 40/45/40
f 41/46/41 36/41/36 37/42/37
f 41/46/41 42/47/42 36/41/36
f 42/47/42 43/48/43 35/40/35
f 42/47/42 35/40/35 36/41/36
f 44/49/44 40/45/40 39/44/39
f 40/45/40 44/49/44 45/50/45
f 45/50/45 41/46/41 40/45/40
f 41/46/41 45/50/45 46/51/46
f 46/51/46 42/47/42 41/46/41
f 42/47/42 46/51/46 47/52/47
f 47/52/47 43/48/43 42/47/42
f 43/48/43 47/52/47 48/53/48
f 49/54/49 9/9/9 31/36/31
f 9/9/9 49/54/49 25/27/25
f 50/55/50 25/27/25 49/54/49
f 25/27/25 50/55/50 26/28/26
f 34/56/34 26/28/26 50/55/50
f 26/28/26 34/56/34 12/29/12
f 51/57/51 31/36/31 35/40/35
f 31/36/31 51/57/51 49/54/49
f 52/58/52 49/54/49 51/57/51
f 49/54/49 52/58/52 50/55/50
f 38/59/38 50/55/50 52/58/52
f 50/55/50 38/59/38 34/56/34
f 52/58/52 53/61/53 39/60/39
f 38/59/38 52/58/52 39/60/39
f 53/61/53 52/58/52 54/62/54
f 52/58/52 51/57/51 54/62/54
f 51/57/51 55/63/55 54/62/54
f 35/40/35 43/48/43 55/63/55
f 51/57/51 35/40/35 55/63/55
f 44/64/44 53/61/53 56/65/56
f 53/61/53 44/64/44 39/60/39
f 56/65/56 54/62/54 57/66/57
f 54/62/54 56/65/56 53/61/53
f 57/66/57 55/63/55 58/67/58
f 55/63/55 57/66/57 54/62/54
f 58/67/58 43/48/43 48/53/48
f 43/48/43 58/67/58 55/63/55
f 64/73/64 59/68/59 60/69/60
f 59/68/59 64/73/64 63/72/63
f 65/74/65 60/69/60 61/70/61
f 60/69/60 65/74/65 64/73/64
f 66/75/66 61/70/61 62/71/62
f 61/70/61 66/75/66 65/74/65
f 68/77/68 63/72/63 64/73/64
f 63/72/63 68/77/68 67/76/67
f 69/78/69 64/73/64 65/74/65
f 64/73/64 69/78/69 68/77/68
f 70/79/70 65/74/65 66/75/66
f 65/74/65 70/79/70 69/78/69
f 72/81/72 67/76/67 68/77/68
f 67/76/67 72/81/72 71/80/71
f 73/82/73 68/77/68 69/78/69
f 68/77/68 73/82/73 72/81/72
f 74/83/74 69/78/69 70/79/70
f 69/78/69 74/83/74 73/82/73
f 77/88/77 59/84/59 63/87/63
f 59/84/59 77/88/77 75/85/75
f 78/89/78 75/85/75 77/88/77
f 75/85/75 78/89/78 76/86/76
f 66/75/66 76/86/76 78/89/78
f 76/86/76 66/75/66 62/71/62
f 79/91/79 63/87/63 67/90/67
f 63/87/63 79/91/79 77/88/77
f 80/92/80 77/88/77 79/91/79
f 77/88/77 80/92/80 78/89/78
f 70/79/70 78/89/78 80/92/80
f 78/89/78 70/79/70 66/75/66
f 81/94/81 67/90/67 71/93/71
f 67/90/67 81/94/81 79/91/79
f 82/95/82 79/91/79 81/94/81
f 79/91/79 82/95/82 80/92/80
f 74/83/74 80/92/80 82/95/82
f 80/92/80 74/83/74 70/79/70
f 84/97/84 71/80/71 72/81/72
f 71/80/71 84/97/84 83/96/83
f 85/98/85 72/81/72 73/82/73
f 72/81/72 85/98/85 84/97/84
f 86/99/86 73/82/73 74/83/74
f 73/82/73 86/99/86 85/98/85
f 88/101/88 83/96/83 84/97/84
f 83/96/83 88/101/88 87/100/87
f 89/102/89 84/97/84 85/98/85
f 84/97/84 89/102/89 88/101/88
f 90/103/90 85/98/85 86/99/86
f 85/98/85 90/103/90 89/102/89
f 91/104/91 88/101/88 92/105/92
f 91/104/91 87/100/87 88/101/88
f 92/105/92 88/101/88 93/106/93
f 93/106/93 89/102/89 94/107/94
f 93/106/93 88/101/88 89/102/89
f 95/108/95 94/107/94 89/102/89
f 95/108/95 89/102/89 90/103/90
f 96/109/96 95/108/95 90/103/90
f 98/111/98 91/104/91 92/105/92
f 91/104/91 98/111/98 97/110/97
f 99/112/99 92/105/92 93/106/93
f 92/105/92 99/112/99 98/111/98
f 100/113/100 93/106/93 94/107/94
f 93/106/93 100/113/100 99/112/99
f 101/114/101 94/107/94 95/108/95
f 94/107/94 101/114/101 100/113/100
f 102/115/102 95/108/95 96/109/96
f 95/108/95 102/115/102 101/114/101
f 103/117/103 71/93/71 83/116/83
f 71/93/71 103/117/103 81/94/81
f 104/118/104 81/94/81 103/117/103
f 81/94/81 104/118/104 82/95/82
f 86/99/86 82/95/82 104/118/104
f 82/95/82 86/99/86 74/83/74
f 105/120/105 83/116/83 87/119/87
f 83/116/83 105/120/105 103/117/103
f 106/121/106 103/117/103 105/120/105
f 103/117/103 106/121/106 104/118/104
f 90/103/90 104/118/104 106/121/106
f 104/118/104 90/103/90 86/99/86
f 107/123/107 105/120/105 91/122/91
f 105/120/105 87/119/87 91/122/91
f 108/124/108 105/120/105 107/123/107
f 109/125/109 106/121/106 108/124/108
f 106/121/106 105/120/105 108/124/108
f 106/121/106 109/125/109 110/126/110
f 90/103/90 106/121/106 110/126/110
f 90/103/90 110/126/110 96/109/96
f 111/128/111 91/122/91 97/127/97
f 91/122/91 111/128/111 107/123/107
f 112/129/112 107/123/107 111/128/111
f 107/123/107 112/129/112 108/124/108
f 113/130/113 108/124/108 112/129/112
f 108/124/108 113/130/113 109/125/109
f 114/131/114 109/125/109 113/130/113
f 109/125/109 114/131/114 110/126/110
f 102/115/102 110/126/110 114/131/114
f 110/126/110 102/115/102 96/109/96
f 115/132/115 117/134/117 116/133/116
f 115/132/115 118/135/118 117/134/117
f 115/132/115 119/136/119 118/135/118
f 121/138/121 116/133/116 117/134/117
f 116/133/116 121/138/121 120/137/120
f 122/139/122 117/134/117 118/135/118
f 117/134/117 122/139/122 121/138/121
f 123/140/123 118/135/118 119/136/119
f 118/135/118 123/140/123 122/139/122
f 125/142/125 120/137/120 121/138/121
f 120/137/120 125/142/125 124/141/124
f 126/143/126 121/138/121 122/139/122
f 121/138/121 126/143/126 125/142/125
f 127/144/127 122/139/122 123/140/123
f 122/139/122 127/144/127 126/143/126
f 115/132/115 128/145/128 119/136/119
f 115/132/115 129/146/129 128/145/128
f 115/132/115 130/147/130 129/146/129
f 131/148/131 119/136/119 128/145/128
f 119/136/119 131/148/131 123/140/123
f 132/149/132 128/145/128 129/146/129
f 128/145/128 132/149/132 131/148/131
f 133/150/133 129/146/129 130/147/130
f 129/146/129 133/150/133 132/149/132
f 134/151/134 123/140/123 131/148/131
f 123/140/123 134/151/134 127/144/127
f 135/152/135 131/148/131 132/149/132
f 131/148/131 135/152/135 134/151/134
f 136/153/136 132/149/132 133/150/133
f 132/149/132 136/153/136 135/152/135
f 137/154/137 138/155/138 115/132/115
f 138/155/138 139/156/139 115/132/115
f 139/156/139 130/147/130 115/132/115
f 141/158/141 137/154/137 140/157/140
f 137/154/137 141/158/141 138/155/138
f 142/159/142 138/155/138 141/158/141
f 138/155/138 142/159/142 139/156/139
f 133/150/133 139/156/139 142/159/142
f 139/156/139 133/150/133 130/147/130
f 144/161/144 140/157/140 143/160/143
f 140/157/140 144/161/144 141/158/141
f 145/162/145 141/158/141 144/161/144
f 141/158/141 145/162/145 142/159/142
f 136/153/136 142/159/142 145/162/145
f 142/159/142 136/153/136 133/150/133
f 116/133/116 146/163/146 115/132/115
f 146/163/146 147/164/147 115/132/115
f 147/164/147 137/154/137 115/132/115
f 148/165/148 116/133/116 120/137/120
f 116/133/116 148/165/148 146/163/146
f 149/166/149 146/163/146 148/165/148
f 146/163/146 149/166/149 147/164/147
f 140/157/140 147/164/147 149/166/149
f 147/164/147 140/157/140 137/154/137
f 150/167/150 120/137/120 124/141/124
f 120/137/120 150/167/150 148/165/148
f 151/168/151 148/165/148 150/167/150
f 148/165/148 151/168/151 149/166/149
f 143/160/143 149/166/149 151/168/151
f 149/166/149 143/160/143 140/157/140
f 153/174/153 124/169/124 125/170/125
f 124/169/124 153/174/153 152/173/152
f 154/175/154 125/170/125 126/171/126
f 125/170/125 154/175/154 153/174/153
f 155/176/155 126/171/126 127/172/127
f 126/171/126 155/176/155 154/175/154
f 157/178/157 152/173/152 153/174/153
f 152/173/152 157/178/157 156/177/156
f 158/179/158 153/174/153 154/175/154
f 153/174/153 158/179/158 157/178/157
f 159/180/159 154/175/154 155/176/155
f 154/175/154 159/180/159 158/179/158
f 161/182/161 156/177/156 157/178/157
f 156/177/156 161/182/161 160/181/160
f 162/183/162 157/178/157 158/179/158
f 157/178/157 162/183/162 161/182/161
f 163/184/163 158/179/158 159/180/159
f 158/179/158 163/184/163 162/183/162
f 164/188/164 127/172/127 134/185/134
f 127/172/127 164/188/164 155/176/155
f 165/189/165 134/185/134 135/186/135
f 134/185/134 165/189/165 164/188/164
f 166/190/166 135/186/135 136/187/136
f 135/186/135 166/190/166 165/189/165
f 167/191/167 155/176/155 164/188/164
f 155/176/155 167/191/167 159/180/159
f 168/192/168 164/188/164 165/189/165
f 164/188/164 168/192/168 167/191/167
f 169/193/169 165/189/165 166/190/166
f 165/189/165 169/193/169 168/192/168
f 170/194/170 159/180/159 167/191/167
f 159/180/159 170/194/170 163/184/163
f 171/195/171 167/191/167 168/192/168
f 167/191/167 171/195/171 170/194/170
f 172/196/172 168/192/168 169/193/169
f 168/192/168 172/196/172 171/195/171
f 174/201/174 143/197/143 173/200/173
f 143/197/143 174/201/174 144/198/144
f 175/202/175 144/198/144 174/201/174
f 144/198/144 175/202/175 145/199/145
f 166/190/166 145/199/145 175/202/175
f 145/199/145 166/190/166 136/187/136
f 177/204/177 173/200/173 176/203/176
f 173/200/173 177/204/177 174/201/174
f 178/205/178 174/201/174 177/204/177
f 174/201/174 178/205/178 175/202/175
f 169/193/169 175/202/175 178/205/178
f 175/202/175 169/193/169 166/190/166
f 180/207/180 176/203/176 179/206/179
f 176/203/176 180/207/180 177/204/177
f 181/208/181 177/204/177 180/207/180
f 177/204/177 181/208/181 178/205/178
f 172/196/172 178/205/178 181/208/181
f 178/205/178 172/196/172 169/193/169
f 182/211/182 124/169/124 152/173/152
f 124/169/124 182/211/182 150/209/150
f 183/212/183 150/209/150 182/211/182
f 150/209/150 183/212/183 151/210/151
f 173/200/173 151/210/151 183/212/183
f 151/210/151 173/200/173 143/197/143
f 184/213/184 152/173/152 156/177/156
f 152/173/152 184/213/184 182/211/182
f 185/214/185 182/211/182 184/213/184
f 182/211/182 185/214/185 183/212/183
f 176/203/176 183/212/183 185/214/185
f 183/212/183 176/203/176 173/200/173
f 186/215/186 156/177/156 160/181/160
f 156/177/156 186/215/186 184/213/184
f 187/216/187 184/213/184 186/215/186
f 184/213/184 187/216/187 185/214/185
f 179/206/179 185/214/185 187/216/187
f 185/214/185 179/206/179 176/203/176
f 193/222/193 188/217/188 189/218/189
f 188/217/188 193/222/193 192/221/192
f 194/223/194 189/218/189 190/219/190
f 189/218/189 194/223/194 193/222/193
f 195/224/195 190/219/190 191/220/191
f 190/219/190 195/224/195 194/223/194
f 197/226/197 192/221/192 193/222/193
f 192/221/192 197/226/197 196/225/196
f 198/227/198 193/222/193 194/223/194
f 193/222/193 198/227/198 197/226/197
f 199/228/199 194/223/194 195/224/195
f 194/223/194 199/228/199 198/227/198
f 201/230/201 196/225/196 197/226/197
f 196/225/196 201/230/201 200/229/200
f 202/231/202 197/226/197 198/227/198
f 197/226/197 202/231/202 201/230/201
f 203/232/203 198/227/198 199/228/199
f 198/227/198 203/232/203 202/231/202
f 207/236/207 191/220/191 204/233/204
f 191/220/191 207/236/207 195/224/195
f 208/237/208 204/233/204 205/234/205
f 204/233/204 208/237/208 207/236/207
f 209/238/209 205/234/205 206/235/206
f 205/234/205 209/238/209 208/237/208
f 210/239/210 195/224/195 207/236/207
f 195/224/195 210/239/210 199/228/199
f 211/240/211 207/236/207 208/237/208
f 207/236/207 211/240/211 210/239/210
f 212/241/212 208/237/208 209/238/209
f 208/237/208 212/241/212 211/240/211
f 213/242/213 199/228/199 210/239/210
f 199/228/199 213/242/213 203/232/203
f 214/243/214 210/239/210 211/240/211
f 210/239/210 214/243/214 213/242/213
f 215/244/215 211/240/211 212/241/212
f 211/240/211 215/244/215 214/243/214
f 220/249/220 216/245/216 219/248/219
f 216/245/216 220/249/220 217/246/217
f 221/250/221 217/246/217 220/249/220
f 217/246/217 221/250/221 218/247/218
f 209/238/209 218/247/218 221/250/221
f 218/247/218 209/238/209 206/235/206
f 223/252/223 219/248/219 222/251/222
f 219/248/219 223/252/223 220/249/220
f 224/253/224 220/249/220 223/252/223
f 220/249/220 224/253/224 221/250/221
f 212/241/212 221/250/221 224/253/224
f 221/250/221 212/241/212 209/238/209
f 226/255/226 222/251/222 225/254/225
f 222/251/222 226/255/226 223/252/223
f 227/256/227 223/252/223 226/255/226
f 223/252/223 227/256/227 224/253/224
f 215/244/215 224/253/224 227/256/227
f 224/253/224 215/244/215 212/241/212
f 230/261/230 188/257/188 192/260/192
f 188/257/188 230/261/230 228/258/228
f 231/262/231 228/258/228 230/261/230
f 228/258/228 231/262/231 229/259/229
f 219/248/219 229/259/229 231/262/231
f 229/259/229 219/248/219 216/245/216
f 232/264/232 192/260/192 196/263/196
f 192/260/192 232/264/232 230/261/230
f 233/265/233 230/261/230 232/264/232
f 230/261/230 233/265/233 231/262/231
f 222/251/222 231/262/231 233/265/233
f 231/262/231 222/251/222 219/248/219
f 234/267/234 196/263/196 200/266/200
f 196/263/196 234/267/234 232/264/232
f 235/268/235 232/264/232 234/267/234
f 232/264/232 235/268/235 233/265/233
f 225/254/225 233/265/233 235/268/235
f 233/265/233 225/254/225 222/251/222
f 238/271/238 201/230/201 202/231/202
f 201/230/201 238/271/238 237/270/237
f 239/272/239 202/231/202 203/232/203
f 202/231/202 239/272/239 238/271/238
f 241/274/241 236/269/236 237/270/237
f 236/269/236 241/274/241 240/273/240
f 242/275/242 237/270/237 238/271/238
f 237/270/237 242/275/242 241/274/241
f 243/276/243 238/271/238 239/272/239
f 238/271/238 243/276/243 242/275/242
f 245/278/245 241/274/241 242/275/242
f 241/274/241 245/278/245 244/277/244
f 246/279/246 242/275/242 243/276/243
f 242/275/242 246/279/246 245/278/245
f 18/281/18 17/280/17 200/229/200
f 18/281/18 200/229/200 201/230/201
f 18/281/18 237/270/237 19/282/19
f 18/281/18 201/230/201 237/270/237
f 20/283/20 19/282/19 237/270/237
f 20/283/20 237/270/237 236/269/236
f 45/285/45 44/284/44 240/273/240
f 45/285/45 240/273/240 241/274/241
f 45/285/45 241/274/241 244/277/244
f 45/285/45 244/277/244 46/286/46
f 247/287/247 203/232/203 213/242/213
f 203/232/203 247/287/247 239/272/239
f 248/288/248 213/242/213 214/243/214
f 213/242/213 248/288/248 247/287/247
f 249/289/249 214/243/214 215/244/215
f 214/243/214 249/289/249 248/288/248
f 250/290/250 239/272/239 247/287/247
f 239/272/239 250/290/250 243/276/243
f 251/291/251 247/287/247 248/288/248
f 247/287/247 251/291/251 250/290/250
f 252/292/252 243/276/243 250/290/250
f 243/276/243 252/292/252 246/279/246
f 253/293/253 250/290/250 251/291/251
f 250/290/250 253/293/253 252/292/252
f 98/295/98 249/289/249 97/294/97
f 98/295/98 248/288/248 249/289/249
f 98/295/98 251/291/251 248/288/248
f 99/296/99 251/291/251 98/295/98
f 99/296/99 100/297/100 253/293/253
f 99/296/99 253/293/253 251/291/251
f 100/297/100 101/298/101 253/293/253
f 255/300/255 225/254/225 254/299/254
f 225/254/225 255/300/255 226/255/226
f 256/301/256 226/255/226 255/300/255
f 226/255/226 256/301/256 227/256/227
f 249/289/249 227/256/227 256/301/256
f 227/256/227 249/289/249 215/244/215
f 258/303/258 254/299/254 257/302/257
f 254/299/254 258/303/258 255/300/255
f 259/304/259 255/300/255 258/303/258
f 255/300/255 259/304/259 256/301/256
f 261/306/261 257/302/257 260/305/260
f 257/302/257 261/306/261 258/303/258
f 262/307/262 258/303/258 261/306/261
f 258/303/258 262/307/262 259/304/259
f 97/294/97 249/289/249 111/308/111
f 249/289/249 256/301/256 111/308/111
f 256/301/256 259/304/259 111/308/111
f 111/308/111 259/304/259 112/309/112
f 262/307/262 113/310/113 112/309/112
f 259/304/259 262/307/262 112/309/112
f 262/307/262 114/311/114 113/310/113
f 264/314/264 234/267/234 263/313/263
f 234/267/234 264/314/264 235/268/235
f 254/299/254 235/268/235 264/314/264
f 235/268/235 254/299/254 225/254/225
f 265/316/265 236/312/236 240/315/240
f 236/312/236 265/316/265 263/313/263
f 266/317/266 263/313/263 265/316/265
f 263/313/263 266/317/266 264/314/264
f 257/302/257 264/314/264 266/317/266
f 264/314/264 257/302/257 254/299/254
f 268/319/268 265/316/265 267/318/267
f 265/316/265 268/319/268 266/317/266
f 260/305/260 266/317/266 268/319/268
f 266/317/266 260/305/260 257/302/257
f 200/266/200 17/320/17 29/321/29
f 234/267/234 200/266/200 29/321/29
f 30/322/30 263/313/263 29/321/29
f 263/313/263 234/267/234 29/321/29
f 263/313/263 30/322/30 20/323/20
f 236/312/236 263/313/263 20/323/20
f 240/315/240 44/324/44 56/325/56
f 265/316/265 240/315/240 56/325/56
f 267/318/267 265/316/265 56/325/56
f 57/326/57 267/318/267 56/325/56
f 271/329/271 244/277/244 245/278/245
f 244/277/244 271/329/271 270/328/270
f 272/330/272 245/278/245 246/279/246
f 245/278/245 272/330/272 271/329/271
f 274/332/274 269/327/269 270/328/270
f 269/327/269 274/332/274 273/331/273
f 275/333/275 270/328/270 271/329/271
f 270/328/270 275/333/275 274/332/274
f 276/334/276 271/329/271 272/330/272
f 271/329/271 276/334/276 275/333/275
f 278/336/278 273/331/273 274/332/274
f 273/331/273 278/336/278 277/335/277
f 279/337/279 274/332/274 275/333/275
f 274/332/274 279/337/279 278/336/278
f 280/338/280 275/333/275 276/334/276
f 275/333/275 280/338/280 279/337/279
f 47/339/47 46/286/46 244/277/244
f 47/339/47 244/277/244 270/328/270
f 47/339/47 269/327/269 48/340/48
f 47/339/47 270/328/270 269/327/269
f 281/341/281 246/279/246 252/292/252
f 246/279/246 281/341/281 272/330/272
f 282/342/282 252/292/252 253/293/253
f 252/292/252 282/342/282 281/341/281
f 284/344/284 272/330/272 281/341/281
f 272/330/272 284/344/284 276/334/276
f 285/345/285 281/341/281 282/342/282
f 281/341/281 285/345/285 284/344/284
f 286/346/286 282/342/282 283/343/283
f 282/342/282 286/346/286 285/345/285
f 287/347/287 276/334/276 284/344/284
f 276/334/276 287/347/287 280/338/280
f 288/348/288 284/344/284 285/345/285
f 284/344/284 288/348/288 287/347/287
f 289/349/289 285/345/285 286/346/286
f 285/345/285 289/349/289 288/348/288
f 101/298/101 102/350/102 283/343/283
f 101/298/101 283/343/283 282/342/282
f 101/298/101 282/342/282 253/293/253
f 291/352/291 260/305/260 290/351/290
f 260/305/260 291/352/291 261/306/261
f 292/353/292 261/306/261 291/352/291
f 261/306/261 292/353/292 262/307/262
f 294/355/294 290/351/290 293/354/293
f 290/351/290 294/355/294 291/352/291
f 295/356/295 291/352/291 294/355/294
f 291/352/291 295/356/295 292/353/292
f 286/346/286 292/353/292 295/356/295
f 292/353/292 286/346/286 283/343/283
f 297/358/297 293/354/293 296/357/296
f 293/354/293 297/358/297 294/355/294
f 298/359/298 294/355/294 297/358/297
f 294/355/294 298/359/298 295/356/295
f 289/349/289 295/356/295 298/359/298
f 295/356/295 289/349/289 286/346/286
f 283/343/283 102/350/102 114/311/114
f 292/353/292 283/343/283 114/311/114
f 262/307/262 292/353/292 114/311/114
f 300/362/300 267/318/267 299/361/299
f 267/318/267 300/362/300 268/319/268
f 290/351/290 268/319/268 300/362/300
f 268/319/268 290/351/290 260/305/260
f 301/364/301 269/360/269 273/363/273
f 269/360/269 301/364/301 299/361/299
f 302/365/302 299/361/299 301/364/301
f 299/361/299 302/365/302 300/362/300
f 293/354/293 300/362/300 302/365/302
f 300/362/300 293/354/293 290/351/290
f 303/367/303 273/363/273 277/366/277
f 273/363/273 303/367/303 301/364/301
f 304/368/304 301/364/301 303/367/303
f 301/364/301 304/368/304 302/365/302
f 296/357/296 302/365/302 304/368/304
f 302/365/302 296/357/296 293/354/293
f 267/318/267 57/326/57 58/369/58
f 299/361/299 267/318/267 58/369/58
f 48/370/48 269/360/269 58/369/58
f 269/360/269 299/361/299 58/369/58
f 160/371/305 189/374/308 188/372/306
f 189/374/308 160/371/305 161/373/307
f 161/373/307 190/376/310 189/374/308
f 190/376/310 161/373/307 162/375/309
f 162/375/309 191/378/312 190/376/310
f 191/378/312 162/375/309 163/377/311
f 163/379/313 204/382/316 191/380/314
f 204/382/316 163/379/313 170/381/315
f 170/381/315 205/384/318 204/382/316
f 205/384/318 170/381/315 171/383/317
f 171/383/317 206/386/320 205/384/318
f 206/386/320 171/383/317 172/385/319
f 172/389/323 218/388/322 206/390/324
f 218/388/322 172/389/323 181/387/321
f 181/391/325 217/390/324 218/392/326
f 217/390/324 181/391/325 180/389/323
f 180/393/327 216/392/326 217/394/328
f 216/392/326 180/393/327 179/391/325
f 179/397/331 229/396/330 216/398/332
f 229/396/330 179/397/331 187/395/329
f 187/399/333 228/398/332 229/400/334
f 228/398/332 187/399/333 186/397/331
f 186/401/335 188/400/334 228/402/336
f 188/400/334 186/401/335 160/399/333
f 59/404/338 305/403/337 60/405/339
f 60/405/339 305/403/337 61/406/340
f 61/406/340 305/403/337 62/407/341
f 62/409/343 305/403/337 76/408/342
f 76/410/344 305/403/337 75/409/343
f 75/411/345 305/403/337 59/410/344
